<?xml version="1.0" encoding="UTF-8" standalone="no"?>
<svg
   sodipodi:docname="pohoda-client-checker.svg"
   inkscape:version="1.2.2 (b0a8486541, 2022-12-01)"
   width="512.0px"
   height="512.0px"
   viewBox="0 0 512.0 512.0"
   version="1.1"
   id="SVGRoot"
   xmlns:inkscape="http://www.inkscape.org/namespaces/inkscape"
   xmlns:sodipodi="http://sodipodi.sourceforge.net/DTD/sodipodi-0.dtd"
   xmlns:xlink="http://www.w3.org/1999/xlink"
   xmlns="http://www.w3.org/2000/svg"
   xmlns:svg="http://www.w3.org/2000/svg"
   xmlns:rdf="http://www.w3.org/1999/02/22-rdf-syntax-ns#"
   xmlns:cc="http://creativecommons.org/ns#"
   xmlns:dc="http://purl.org/dc/elements/1.1/">
  <defs
     id="defs3995">
    <linearGradient
       id="linearGradient1346"
       y2="63.66"
       xlink:href="#linearGradient1364"
       gradientUnits="userSpaceOnUse"
       x2="63.487999"
       y1="8.6307001"
       x1="10.018"
       inkscape:collect="always" />
    <linearGradient
       id="linearGradient1364">
      <stop
         id="stop1366"
         style="stop-color:#830f0f"
         offset="0" />
      <stop
         id="stop1368"
         style="stop-color:#220505"
         offset="1" />
    </linearGradient>
    <radialGradient
       id="radialGradient1343"
       gradientUnits="userSpaceOnUse"
       cy="16.362"
       cx="24.764"
       gradientTransform="matrix(0.025214,1.0261,-0.97814,0.024047,38.83,-3.5757)"
       r="27.5"
       inkscape:collect="always">
      <stop
         id="stop2124"
         style="stop-color:#f64343"
         offset="0" />
      <stop
         id="stop2126"
         style="stop-color:#811515"
         offset="1" />
    </radialGradient>
    <radialGradient
       id="radialGradient2812"
       gradientUnits="userSpaceOnUse"
       cy="14.047"
       cx="18.386999"
       gradientTransform="matrix(0.011424,1.0988,-1.844,0.018788,52.151,-5.6674)"
       r="27.5"
       inkscape:collect="always">
      <stop
         id="stop2816"
         style="stop-color:#e6e6e6"
         offset="0" />
      <stop
         id="stop2818"
         style="stop-color:#661111;stop-opacity:0"
         offset="1" />
    </radialGradient>
    <linearGradient
       id="linearGradient2832"
       y2="63.66"
       xlink:href="#linearGradient1364"
       gradientUnits="userSpaceOnUse"
       x2="63.487999"
       gradientTransform="translate(-0.002841,-0.002841)"
       y1="8.6307001"
       x1="10.018"
       inkscape:collect="always" />
    <linearGradient
       id="linearGradient1363"
       y2="49.069"
       gradientUnits="userSpaceOnUse"
       x2="35.542"
       gradientTransform="translate(-2.4035)"
       y1="19.176001"
       x1="25.403999"
       inkscape:collect="always">
      <stop
         id="stop2844"
         style="stop-color:#ffffff"
         offset="0" />
      <stop
         id="stop2846"
         style="stop-color:#c8c8c8"
         offset="1" />
    </linearGradient>
  </defs>
  <sodipodi:namedview
     inkscape:window-maximized="1"
     inkscape:window-y="0"
     inkscape:window-x="1920"
     inkscape:window-height="1176"
     inkscape:window-width="1920"
     showgrid="true"
     inkscape:document-rotation="0"
     inkscape:current-layer="layer1"
     inkscape:document-units="px"
     inkscape:cy="505"
     inkscape:cx="89.285714"
     inkscape:zoom="0.7"
     inkscape:pageshadow="2"
     inkscape:pageopacity="0.0"
     borderopacity="1.0"
     bordercolor="#666666"
     pagecolor="#ffffff"
     id="base"
     inkscape:showpageshadow="2"
     inkscape:pagecheckerboard="0"
     inkscape:deskcolor="#d1d1d1">
    <inkscape:grid
       type="xygrid"
       id="grid4565" />
  </sodipodi:namedview>
  <metadata
     id="metadata3998">
    <rdf:RDF>
      <cc:Work
         rdf:about="">
        <dc:format>image/svg+xml</dc:format>
        <dc:type
           rdf:resource="http://purl.org/dc/dcmitype/StillImage" />
        <dc:title />
      </cc:Work>
    </rdf:RDF>
  </metadata>
  <g
     id="layer1"
     inkscape:groupmode="layer"
     inkscape:label="Vrstva 1">
    <g
       id="g3038"
       transform="matrix(7.3142855,0,0,7.3141813,-5.2211101,-4666.7349)">
      <path
         fill="#b2b2b2"
         d="m 48.138,704.971 v -3.212 c 0,-4.757 3.885,-8.827 8.521,-9.23 H 21.237 c -0.683,0 -1.237,0.388 -1.237,1.071 v 12.304 c 0,0.685 0.554,1.097 1.237,1.097 h 27.497 c -0.28,-0.401 -0.596,-1.264 -0.596,-2.03 z"
         id="path2988" />
      <path
         fill="#595959"
         d="m 70,672.444 c 0,0.686 -0.555,1.237 -1.238,1.237 H 21.237 c -0.683,0 -1.237,-0.552 -1.237,-1.237 v -12.303 c 0,-0.686 0.554,-1.239 1.237,-1.239 h 47.525 c 0.683,0 1.238,0.554 1.238,1.239 z"
         id="path2990" />
      <circle
         fill="#f79903"
         cx="62.91"
         cy="666.29303"
         r="2.404"
         id="circle2992" />
      <g
         id="g3004">
        <polygon
           fill-rule="evenodd"
           clip-rule="evenodd"
           fill="#ffffff"
           points="37.943,663.401 40.235,663.401 37.351,669.182 35.06,669.182 "
           id="polygon2994" />
        <g
           id="g3002">
          <polygon
             fill-rule="evenodd"
             clip-rule="evenodd"
             fill="#ffffff"
             points="29.527,663.401 31.82,663.401 28.938,669.182 26.644,669.182 "
             id="polygon2996" />
          <polygon
             fill-rule="evenodd"
             clip-rule="evenodd"
             fill="#ffffff"
             points="33.736,663.401 36.029,663.401 33.144,669.182 30.852,669.182 "
             id="polygon2998" />
          <polygon
             fill-rule="evenodd"
             clip-rule="evenodd"
             fill="#ffffff"
             points="42.171,663.401 44.464,663.401 41.579,669.182 39.285,669.182 "
             id="polygon3000" />
        </g>
      </g>
      <path
         fill="#b2b2b2"
         d="m 70,689.291 c 0,0.685 -0.555,1.237 -1.238,1.237 H 21.237 c -0.683,0 -1.237,-0.553 -1.237,-1.237 v -12.304 c 0,-0.684 0.554,-1.237 1.237,-1.237 h 47.525 c 0.683,0 1.238,0.554 1.238,1.237 z"
         id="path3006" />
      <path
         fill="#f79903"
         d="m 65.313,683.141 c 0,1.326 -1.077,2.403 -2.404,2.403 -1.329,0 -2.404,-1.077 -2.404,-2.403 0,-1.331 1.075,-2.406 2.404,-2.406 1.327,-10e-4 2.404,1.075 2.404,2.406 z"
         id="path3008" />
      <g
         id="g3020">
        <polygon
           fill-rule="evenodd"
           clip-rule="evenodd"
           fill="#595959"
           points="37.943,680.249 40.235,680.249 37.351,686.029 35.06,686.029 "
           id="polygon3010" />
        <g
           id="g3018">
          <polygon
             fill-rule="evenodd"
             clip-rule="evenodd"
             fill="#595959"
             points="29.527,680.249 31.82,680.249 28.938,686.029 26.644,686.029 "
             id="polygon3012" />
          <polygon
             fill-rule="evenodd"
             clip-rule="evenodd"
             fill="#595959"
             points="33.736,680.249 36.029,680.249 33.144,686.029 30.852,686.029 "
             id="polygon3014" />
          <polygon
             fill-rule="evenodd"
             clip-rule="evenodd"
             fill="#595959"
             points="42.171,680.249 44.464,680.249 41.579,686.029 39.285,686.029 "
             id="polygon3016" />
        </g>
      </g>
      <g
         id="g3032">
        <polygon
           fill-rule="evenodd"
           clip-rule="evenodd"
           fill="#595959"
           points="37.943,696.86 40.235,696.86 37.351,702.64 35.06,702.64 "
           id="polygon3022" />
        <g
           id="g3030">
          <polygon
             fill-rule="evenodd"
             clip-rule="evenodd"
             fill="#595959"
             points="29.527,696.86 31.82,696.86 28.938,702.64 26.644,702.64 "
             id="polygon3024" />
          <polygon
             fill-rule="evenodd"
             clip-rule="evenodd"
             fill="#595959"
             points="33.736,696.86 36.029,696.86 33.144,702.64 30.852,702.64 "
             id="polygon3026" />
          <polygon
             fill-rule="evenodd"
             clip-rule="evenodd"
             fill="#595959"
             points="42.171,696.86 44.464,696.86 41.579,702.64 39.285,702.64 "
             id="polygon3028" />
        </g>
      </g>
      <g
         id="g3036">
        <path
           fill="#f79903"
           d="m 68.036,706.811 c -1.012,0 -1.839,-0.825 -1.839,-1.84 v -3.212 c 0,-0.855 -0.695,-1.544 -1.552,-1.544 -0.848,0 -1.532,0.688 -1.532,1.544 v 3.212 c 0,1.015 -0.835,1.84 -1.853,1.84 -1.044,0 -1.871,-0.825 -1.871,-1.84 v -3.212 c 0,-0.855 -0.7,-1.544 -1.548,-1.544 -0.849,0 -1.543,0.688 -1.543,1.544 v 3.212 c 0,1.015 -0.832,1.84 -1.847,1.84 -1.015,0 -1.841,-0.825 -1.841,-1.84 v -3.212 c 0,-2.886 2.343,-5.24 5.232,-5.24 1.181,0 2.306,0.398 3.242,1.131 l 0.168,0.139 0.167,-0.139 c 0.931,-0.732 2.049,-1.131 3.227,-1.131 2.898,0 5.246,2.354 5.246,5.24 v 3.212 c -0.002,1.014 -0.835,1.84 -1.856,1.84 z"
           id="path3034" />
      </g>
    </g>
    <g
       id="g242"
       transform="matrix(4.5398805,0,0,4.5398805,-29.045487,-25.478417)">
      <g
         id="g1354">
        <path
           id="path1373"
           style="fill:url(#linearGradient1346)"
           d="m 32,8.6307 c -12.887,0 -23.369,10.482 -23.369,23.369 -3e-4,12.887 10.482,23.369 23.369,23.369 12.887,0 23.369,-10.482 23.369,-23.369 C 55.369,19.1127 44.887,8.6307 32,8.6307 Z" />
        <path
           id="path1339"
           style="fill:url(#radialGradient1343)"
           d="M 54.5,32 C 54.5,44.42 44.42,54.5 32,54.5 19.58,54.5 9.5,44.42 9.5,32 9.5,19.58 19.58,9.5 32,9.5 44.42,9.5 54.5,19.58 54.5,32 Z" />
        <path
           id="path1341"
           style="fill:url(#radialGradient2812)"
           d="m 32.017,9.1562 c -9.442,0 -17.512,5.7088 -20.955,13.813 4.944,2.833 10.331,4.887 16.119,4.625 5.574,-0.314 10.373,-4.063 16.056,-3.782 4.214,-0.096 9.007,1.482 11.252,5.188 C 53.143,17.8472 43.658,9.1562 32.017,9.1562 Z" />
        <path
           id="path2827"
           style="fill:url(#linearGradient2832)"
           d="M 32,8.625 C 19.113,8.625 8.625,19.113 8.625,32 8.625,44.887 19.113,55.375 32,55.375 44.887,55.375 55.375,44.887 55.375,32 55.375,19.113 44.887,8.625 32,8.625 Z M 32,9.5 C 44.42,9.5 54.5,19.58 54.5,32 54.5,44.42 44.42,54.5 32,54.5 19.58,54.5 9.5,44.42 9.5,32 9.5,19.58 19.58,9.5 32,9.5 Z" />
        <path
           id="text1353"
           style="fill:url(#linearGradient1363)"
           d="m 32.556,39.002 c 0.136,-3.171 0.544,-3.941 3.352,-6.115 3.487,-2.672 3.895,-2.989 4.212,-3.261 1.585,-1.358 2.491,-3.442 2.491,-5.616 0,-4.936 -3.986,-8.061 -10.326,-8.061 -5.979,0 -10.191,2.898 -10.191,7.065 0,2.446 1.812,4.212 4.303,4.212 2.31,0 3.895,-1.495 3.895,-3.623 0,-1.223 -0.498,-2.22 -1.449,-2.944 -0.816,-0.634 -0.861,-0.68 -0.861,-0.997 0,-0.634 0.996,-1.132 2.4,-1.132 2.718,0 4.258,1.812 4.258,4.982 0,1.857 -0.68,4.167 -1.812,6.205 -2.491,4.438 -2.853,5.344 -2.853,7.382 0,0.453 0.045,1.178 0.136,1.903 h 2.445 m -1.132,2.491 c -2.355,0 -4.257,1.902 -4.257,4.257 0,2.31 1.902,4.257 4.212,4.257 2.4,0 4.302,-1.902 4.302,-4.257 0,-2.355 -1.902,-4.257 -4.257,-4.257" />
      </g>
    </g>
  </g>
</svg>
